<svg width="1658" height="864" viewBox="0 0 1658 864" fill="none" xmlns="http://www.w3.org/2000/svg">
<path fill-rule="evenodd" clip-rule="evenodd" d="M552.1 405.8C553.757 405.8 555.1 407.143 555.1 408.8C555.1 410.398 553.851 411.704 552.276 411.795L552.1 411.8H423.2C348.683 411.8 295.765 471.089 303.814 544.886L304.077 547.127L328.477 741.727C328.683 743.371 327.517 744.87 325.873 745.077C324.288 745.275 322.837 744.199 322.55 742.647L322.523 742.473L298.123 547.873C288.395 470.245 343.203 407.075 420.84 405.819L423.2 405.8H552.1Z" fill="#2E186A"/>
<path fill-rule="evenodd" clip-rule="evenodd" d="M640.559 343.033C641.823 342.845 643.068 343.479 643.66 344.612L647.158 351.308C647.286 351.553 647.379 351.813 647.436 352.083L647.471 352.287L651.671 382.487C651.767 383.176 651.62 383.875 651.26 384.465L651.145 384.639L635.145 407.139C634.185 408.489 632.312 408.805 630.962 407.845C629.663 406.922 629.321 405.154 630.15 403.819L630.255 403.661L645.564 382.133L641.6 353.629L639.332 349.288L639.012 349.338C600.033 355.433 575.64 366.558 564.463 381.837L564.122 382.311C554.405 396.002 555.151 413.193 565.283 433.458C566.171 435.233 565.122 437.364 563.175 437.744C497.321 450.606 443.731 505.832 411.757 585.122C382.95 656.559 376.473 737.893 395.126 790.092L398.156 798.651C404.568 816.678 408.456 825.431 414.245 833.212C421.683 843.212 430.904 848.28 443.628 848.4C445.285 848.416 446.616 849.771 446.6 851.428C446.584 853.085 445.229 854.415 443.572 854.4C428.894 854.262 417.949 848.246 409.43 836.794L408.947 836.136C403.118 828.119 399.166 819.273 393.024 802.123L389.601 792.464C389.559 792.345 389.517 792.227 389.475 792.11C370.28 738.393 376.875 655.582 406.193 582.878C438.204 503.496 491.698 447.441 557.953 432.706L558.243 432.642L558.042 432.199C548.926 411.973 548.716 394.042 558.897 379.313L559.229 378.839C571.611 361.392 598.294 349.319 640.559 343.033Z" fill="#2E186A"/>
<path fill-rule="evenodd" clip-rule="evenodd" d="M678.3 486.3C678.3 486.1 678.3 485.9 678.3 485.7C683 486.2 687.6 486.2 692.1 482.4C703.1 472.9 707 470 707 470C707 470 708 471.2 709.8 473.2C712 469.2 714.2 465 716.5 460.8C669 424 632.7 405.4 632.7 405.4L630 403.5L612.6 424.8C612.6 424.8 641 444.3 678.3 486.3Z" fill="#FE7624"/>
<path fill-rule="evenodd" clip-rule="evenodd" d="M907.9 831.5C907.9 831.5 831.9 627.1 841.6 563.8C846.9 529.2 838.6 490.1 827.2 459.8L805.4 461.2L779.3 522.8C781 523.2 782.7 523.6 784.4 523.8C784.4 523.8 783.4 530.3 780.9 545.1C779.2 555 782.1 556.1 784.3 563C787.2 567.6 789.4 572.8 787 580.9C786.2 583.5 784.3 608.3 780 641.9C788 658.8 795.6 676.8 802.8 696C848.9 818.9 844.1 832.3 844.1 832.3L907.9 831.5Z" fill="#FE7624"/>
<path fill-rule="evenodd" clip-rule="evenodd" d="M812.062 349.928C812.599 348.36 814.305 347.525 815.872 348.062C846.259 358.471 867.469 374.911 881.309 396.374C891.34 411.932 896.679 428.123 900.218 448.585L900.362 449.433L902.387 450.978C999.203 525.123 1068.38 608.728 1114.35 696.446L1115.75 699.132C1133.03 732.485 1146.05 764.766 1155.41 795.272C1161.98 816.721 1166.07 834.959 1168.27 849.347C1168.52 850.985 1167.39 852.515 1165.75 852.766C1164.12 853.016 1162.58 851.891 1162.33 850.253L1162.1 848.754C1159.89 834.882 1155.93 817.449 1149.67 797.031C1140.42 766.862 1127.54 734.916 1110.42 701.893C1064.4 613.074 994.43 528.4 895.786 453.489C895.175 453.025 894.765 452.345 894.64 451.588C891.226 430.901 886.102 414.88 876.266 399.626C863.163 379.304 843.048 363.713 813.928 353.738C812.36 353.201 811.525 351.495 812.062 349.928Z" fill="#2E186A"/>
<path fill-rule="evenodd" clip-rule="evenodd" d="M859.847 549.103C861.988 549.181 863.674 550.928 863.7 553.047L863.695 553.305L863.675 553.967C863.657 554.574 863.64 555.289 863.624 556.107C863.173 578.632 864.306 605.899 868.341 631.98C870.168 643.792 872.516 654.587 875.426 664.133C876.071 666.247 874.88 668.482 872.767 669.126C870.654 669.77 868.418 668.58 867.774 666.467C864.743 656.526 862.316 645.367 860.435 633.203C856.394 607.085 855.211 579.939 855.601 557.251L855.66 554.404L855.703 552.953C855.782 550.812 857.529 549.127 859.647 549.1L859.847 549.103Z" fill="#2E186A"/>
<path fill-rule="evenodd" clip-rule="evenodd" d="M894.6 450.3C895.3 454.6 895.9 458.5 896.4 461.9C902.5 501.7 889.4 528.2 880.7 546.5C904 530 919.8 498.6 927.7 474.7C918.2 467.1 905.1 458.1 894.6 450.3Z" fill="#2E186A"/>
<path fill-rule="evenodd" clip-rule="evenodd" d="M565 433C548.7 436.3 521.9 444.5 502.5 457.8C516 465.2 582.9 505.2 637.5 529.2C637.9 529 640.9 524 642.4 522C612.2 498.1 580.4 463.9 565 433Z" fill="#2E186A"/>
<path fill-rule="evenodd" clip-rule="evenodd" d="M608.212 270.805C609.811 270.37 611.459 271.313 611.895 272.912C612.314 274.454 611.452 276.042 609.957 276.543L609.433 276.699C609.274 276.748 609.073 276.811 608.836 276.89C608.02 277.158 607.106 277.492 606.117 277.893C603.289 279.042 600.462 280.492 597.84 282.257C586.799 289.692 582.827 299.879 589.612 314.218C593.871 323.226 599.818 327.049 607.41 327.013C613.457 326.983 620.175 324.561 627.519 320.391C628.96 319.573 630.791 320.078 631.609 321.519C632.427 322.96 631.922 324.791 630.481 325.609C622.322 330.242 614.736 332.977 607.44 333.012C597.495 333.061 589.433 327.879 584.188 316.783C576.009 299.497 581.176 286.246 594.489 277.281C597.483 275.264 600.672 273.629 603.86 272.334C605.784 271.553 607.3 271.054 608.212 270.805Z" fill="#2E186A"/>
<path fill-rule="evenodd" clip-rule="evenodd" d="M704.654 134.618C698.423 135.868 693.082 137.355 688.634 138.855L688.033 139.06C650.252 151.922 627.412 174.46 617.069 203.846C609.489 225.382 609.261 248.235 613.399 269.559C613.92 272.24 614.474 274.677 615.034 276.841L615.281 277.778L615.449 278.396C615.557 278.786 615.655 279.133 615.743 279.434L615.905 279.979C616.018 281.931 617.963 283.275 619.849 282.646L630.125 279.22L630.265 279.327C638.828 286.023 661.833 314.997 669.244 329.096C670.066 330.658 672.052 331.177 673.533 330.217L674.415 329.661L675.325 329.102C675.648 328.905 675.992 328.697 676.356 328.48L677.109 328.032C680.095 326.265 683.608 324.294 687.624 322.168C699.116 316.084 712.31 309.995 726.999 304.311L728.883 303.587C740.839 299.03 753.276 294.946 766.138 291.447L768.155 290.905L770.268 290.44C770.748 290.336 771.253 290.227 771.781 290.115L772.869 289.885C776.596 289.102 780.548 288.319 784.548 287.589C787.732 287.007 790.816 286.484 793.753 286.032L795.762 285.731C803.002 284.675 808.856 284.155 812.791 284.298C814.638 284.365 816.106 282.762 815.877 280.928C811.103 242.736 802.056 203.662 789.091 170.799C779.16 145.602 759.345 133.732 733.39 132.305C723.996 131.788 714.296 132.684 704.654 134.618ZM733.06 138.295C756.843 139.604 774.52 150.192 783.509 173L784.095 174.497C795.961 205.032 804.453 240.976 809.243 276.443L809.491 278.309L809.413 278.312C805.009 278.466 799.411 279.091 792.84 280.102C789.845 280.563 786.707 281.095 783.471 281.686C779.921 282.334 776.413 283.023 773.061 283.716L770.532 284.246C769.818 284.398 769.145 284.543 768.518 284.68L766.735 285.074L766.628 285.101C752.147 288.958 738.19 293.547 724.834 298.715C709.917 304.488 696.51 310.674 684.816 316.865L683.203 317.725C679.767 319.57 676.711 321.296 674.054 322.868L672.997 323.497L672.888 323.308C663.272 306.834 640.078 278.171 632.163 273.339L631.986 273.239C631.268 272.865 630.425 272.796 629.651 273.054L621 275.937C620.419 273.75 619.835 271.228 619.289 268.416C615.337 248.049 615.555 226.22 622.729 205.838C632.363 178.467 653.496 157.434 688.898 145.108L689.975 144.737C694.313 143.246 699.605 141.75 705.834 140.501C715.012 138.66 724.219 137.809 733.06 138.295Z" fill="#2E186A"/>
<path fill-rule="evenodd" clip-rule="evenodd" d="M629.647 272.955C630.487 272.674 631.407 272.778 632.163 273.239C639.999 278.022 662.81 306.163 672.595 322.71L672.997 323.397L674.054 322.768L675.309 322.031C678.088 320.413 681.263 318.646 684.816 316.765C696.51 310.574 709.917 304.388 724.834 298.615C737.554 293.693 750.819 289.296 764.563 285.557L766.628 285.001L768.051 284.681L770.52 284.146L771.62 283.912C775.387 283.118 779.381 282.323 783.43 281.582C786.218 281.071 788.933 280.603 791.547 280.188L792.846 279.985C801.493 278.653 808.452 277.994 813.231 278.203C814.611 278.263 815.771 279.258 816.042 280.612L816.182 281.347L816.46 282.9C816.525 283.271 816.591 283.664 816.66 284.078L816.889 285.483C817.269 287.876 817.645 290.516 818 293.37C820.099 310.251 820.7 327.768 818.884 344.195C818.818 344.787 818.75 345.377 818.678 345.964C818.477 347.609 816.98 348.779 815.336 348.578C813.691 348.377 812.521 346.88 812.722 345.236C812.791 344.672 812.857 344.105 812.92 343.535C814.678 327.64 814.092 310.565 812.046 294.11L811.836 292.465C811.518 290.037 811.186 287.786 810.853 285.738L810.591 284.171L810.289 284.177C806.253 284.268 800.85 284.84 794.427 285.813L793.759 285.915C790.809 286.37 787.71 286.897 784.511 287.483C781.018 288.123 777.562 288.804 774.263 289.489L771.255 290.124L768.833 290.653L768.106 290.816L766.138 291.346C753.276 294.846 740.839 298.93 728.883 303.487L726.999 304.211C712.31 309.895 699.117 315.984 687.624 322.068L686.044 322.91C682.94 324.577 680.158 326.141 677.714 327.575L676.356 328.38C675.992 328.597 675.648 328.805 675.325 329.002L673.756 329.974C673.66 330.035 673.586 330.082 673.533 330.117C672.052 331.077 670.066 330.558 669.244 328.996C661.907 315.038 639.286 286.501 630.526 279.435L630.127 279.121L613.606 284.654L619.162 295.892L623.425 304.468C626.62 310.88 629.798 317.222 632.887 323.341L637.166 331.787C646.2 349.544 653.034 362.491 656.774 368.759C668.724 388.712 675.765 394.656 702.783 405.302C711.861 408.816 723.431 410.8 735.3 410.8C736.957 410.8 738.3 412.143 738.3 413.8C738.3 415.457 736.957 416.8 735.3 416.8C722.718 416.8 710.417 414.691 700.6 410.891L698.11 409.9C672.391 399.551 664.216 392.593 652.376 373.086L651.624 371.837C647.841 365.497 641.106 352.751 632.195 335.247L629.579 330.097C625.512 322.068 621.257 313.581 616.988 305.003L613.323 297.623L606.707 284.221C605.934 282.646 606.673 280.762 608.278 280.117L608.447 280.055L629.647 272.955Z" fill="#2E186A"/>
<path fill-rule="evenodd" clip-rule="evenodd" d="M612 292C612 292 592.9 269.8 579.1 243.3C566.1 218.4 571.5 187.5 593 169.5C611 154.4 628.2 158.4 628.2 158.4C628.2 158.4 597.1 126.8 621.6 85.8C630.2 71.4 644.5 61 661 57.4C701.2 48.6 722 79.2 722 79.2C722 79.2 745.1 -10 844.3 14.6C854.3 17.1 867.5 27.7 874.5 35.3C916.8 81.4 837.2 168.4 788.8 185.8C735.7 205 701.5 204 680.6 195C695.7 199.6 696.2 284.3 612 292Z" fill="#2E186A"/>
<path fill-rule="evenodd" clip-rule="evenodd" d="M763.89 260.657C765.892 259.902 768.12 260.859 768.966 262.799L769.043 262.99L787.843 312.89C788.81 315.456 786.969 318.19 784.265 318.297L784.079 318.3L764.779 318.2C762.57 318.188 760.789 316.388 760.8 314.179C760.811 312.037 762.504 310.297 764.621 310.204L764.821 310.2L778.306 310.27L761.557 265.81C760.802 263.808 761.759 261.58 763.699 260.734L763.89 260.657Z" fill="#2E186A"/>
<path fill-rule="evenodd" clip-rule="evenodd" d="M755 357.5C760.247 357.5 764.5 353.247 764.5 348C764.5 342.753 760.247 338.5 755 338.5C749.753 338.5 745.5 342.753 745.5 348C745.5 353.247 749.753 357.5 755 357.5Z" fill="#2E186A"/>
<path fill-rule="evenodd" clip-rule="evenodd" d="M787.506 268.431C790.399 267.707 791.832 263.472 790.706 258.971C789.58 254.471 786.322 251.409 783.428 252.133C780.535 252.857 779.103 257.092 780.229 261.593C781.355 266.093 784.613 269.155 787.506 268.431Z" fill="#2E186A"/>
<path fill-rule="evenodd" clip-rule="evenodd" d="M736.614 280.241C739.507 279.518 740.94 275.283 739.814 270.782C738.688 266.282 735.43 263.22 732.537 263.944C729.644 264.668 728.211 268.903 729.337 273.403C730.463 277.904 733.721 280.965 736.614 280.241Z" fill="#2E186A"/>
<path fill-rule="evenodd" clip-rule="evenodd" d="M721.617 221.718C723.816 221.507 725.77 223.118 725.982 225.317C726.193 227.516 724.582 229.47 722.383 229.682C716.896 230.209 712.617 232.411 709.303 235.784C707.957 237.154 706.867 238.626 706.018 240.088L705.79 240.491C705.474 241.064 705.27 241.498 705.17 241.742L705.141 241.817C704.358 243.883 702.049 244.923 699.983 244.141C697.917 243.358 696.877 241.049 697.659 238.983C697.909 238.325 698.377 237.317 699.098 236.075C700.267 234.06 701.753 232.054 703.596 230.178C708.175 225.518 714.166 222.435 721.617 221.718Z" fill="#2E186A"/>
<path fill-rule="evenodd" clip-rule="evenodd" d="M771.661 207.804C775.302 206.54 779.062 205.992 782.743 206.619C787.284 207.393 791.136 209.919 793.816 214.319C794.965 216.206 794.367 218.667 792.481 219.816C790.594 220.965 788.133 220.367 786.984 218.481C785.533 216.099 783.702 214.898 781.4 214.506C779.249 214.139 776.761 214.501 774.284 215.361C773.642 215.584 773.056 215.822 772.543 216.057L772.094 216.271L772.012 216.313C770.071 217.369 767.642 216.652 766.586 214.712C765.53 212.771 766.248 210.342 768.188 209.286L768.532 209.106C769.275 208.728 770.34 208.262 771.661 207.804Z" fill="#2E186A"/>
<path fill-rule="evenodd" clip-rule="evenodd" d="M1361.8 573.4H973C967.9 573.4 963.5 576.9 962.3 581.9L908.2 810.7H767.3C767.3 810.7 759.5 851 805 851C828.1 851 1301.4 851 1301.4 851C1306.5 851 1310.9 847.5 1312.1 842.5L1372.5 586.9C1374.1 580 1368.9 573.4 1361.8 573.4Z" fill="#2E186A"/>
<path fill-rule="evenodd" clip-rule="evenodd" d="M1207.5 234.6H1204.4C1201.6 234.6 1199.4 232.4 1199.4 229.6V221.7C1199.4 218.9 1201.6 216.7 1204.4 216.7H1207.5C1210.3 216.7 1212.5 218.9 1212.5 221.7V229.6C1212.5 232.4 1210.3 234.6 1207.5 234.6Z" fill="#FE7624"/>
<path fill-rule="evenodd" clip-rule="evenodd" d="M1189.4 234.6H1109.6C1106.8 234.6 1104.6 232.4 1104.6 229.6V221.7C1104.6 218.9 1106.8 216.7 1109.6 216.7H1189.4C1192.2 216.7 1194.4 218.9 1194.4 221.7V229.6C1194.4 232.4 1192.2 234.6 1189.4 234.6Z" fill="#2E186A"/>
<path fill-rule="evenodd" clip-rule="evenodd" d="M1197.6 317.7H1109.7C1106.9 317.7 1104.7 315.5 1104.7 312.7V304.8C1104.7 302 1106.9 299.8 1109.7 299.8H1197.6C1200.4 299.8 1202.6 302 1202.6 304.8V312.7C1202.6 315.5 1200.3 317.7 1197.6 317.7Z" fill="#2E186A"/>
<path fill-rule="evenodd" clip-rule="evenodd" d="M1276.3 290H1134.4C1131.6 290 1129.4 287.8 1129.4 285V277.1C1129.4 274.3 1131.6 272.1 1134.4 272.1H1276.3C1279.1 272.1 1281.3 274.3 1281.3 277.1V285C1281.3 287.8 1279.1 290 1276.3 290Z" fill="#FE7624"/>
<path fill-rule="evenodd" clip-rule="evenodd" d="M1366.8 290H1294.8C1292 290 1289.8 287.8 1289.8 285V277.1C1289.8 274.3 1292 272.1 1294.8 272.1H1366.8C1369.6 272.1 1371.8 274.3 1371.8 277.1V285C1371.8 287.8 1369.6 290 1366.8 290Z" fill="#FE7624"/>
<path fill-rule="evenodd" clip-rule="evenodd" d="M1394.6 262.4H1391.5C1388.7 262.4 1386.5 260.2 1386.5 257.4V249.5C1386.5 246.7 1388.7 244.5 1391.5 244.5H1394.6C1397.4 244.5 1399.6 246.7 1399.6 249.5V257.4C1399.6 260.1 1397.4 262.4 1394.6 262.4Z" fill="#2E186A"/>
<path fill-rule="evenodd" clip-rule="evenodd" d="M1256.7 262.3H1109.6C1106.8 262.3 1104.6 260.1 1104.6 257.3V249.4C1104.6 246.6 1106.8 244.4 1109.6 244.4H1256.7C1259.5 244.4 1261.7 246.6 1261.7 249.4V257.3C1261.7 260.1 1259.5 262.3 1256.7 262.3Z" fill="#2E186A"/>
<path fill-rule="evenodd" clip-rule="evenodd" d="M1303.1 234.6H1223.3C1220.5 234.6 1218.3 232.4 1218.3 229.6V221.7C1218.3 218.9 1220.5 216.7 1223.3 216.7H1303.1C1305.9 216.7 1308.1 218.9 1308.1 221.7V229.6C1308.1 232.4 1305.8 234.6 1303.1 234.6Z" fill="#2E186A"/>
<path fill-rule="evenodd" clip-rule="evenodd" d="M1374.5 262.4H1273.7C1270.9 262.4 1268.7 260.2 1268.7 257.4V249.4C1268.7 246.6 1270.9 244.4 1273.7 244.4H1374.5C1377.3 244.4 1379.5 246.6 1379.5 249.4V257.4C1379.5 260.1 1377.3 262.4 1374.5 262.4Z" fill="#FE7624"/>
<path fill-rule="evenodd" clip-rule="evenodd" d="M1189.4 414H1109.6C1106.8 414 1104.6 411.8 1104.6 409V401.1C1104.6 398.3 1106.8 396.1 1109.6 396.1H1189.4C1192.2 396.1 1194.4 398.3 1194.4 401.1V409C1194.4 411.8 1192.2 414 1189.4 414Z" fill="#2E186A"/>
<path fill-rule="evenodd" clip-rule="evenodd" d="M1197.6 497.1H1109.7C1106.9 497.1 1104.7 494.9 1104.7 492.1V484.2C1104.7 481.4 1106.9 479.2 1109.7 479.2H1197.6C1200.4 479.2 1202.6 481.4 1202.6 484.2V492.1C1202.6 494.8 1200.3 497.1 1197.6 497.1Z" fill="#2E186A"/>
<path fill-rule="evenodd" clip-rule="evenodd" d="M1276.3 469.4H1134.4C1131.6 469.4 1129.4 467.2 1129.4 464.4V456.5C1129.4 453.7 1131.6 451.5 1134.4 451.5H1276.3C1279.1 451.5 1281.3 453.7 1281.3 456.5V464.4C1281.3 467.2 1279.1 469.4 1276.3 469.4Z" fill="#FE7624"/>
<path fill-rule="evenodd" clip-rule="evenodd" d="M1366.8 469.4H1294.8C1292 469.4 1289.8 467.2 1289.8 464.4V456.5C1289.8 453.7 1292 451.5 1294.8 451.5H1366.8C1369.6 451.5 1371.8 453.7 1371.8 456.5V464.4C1371.8 467.2 1369.6 469.4 1366.8 469.4Z" fill="#FE7624"/>
<path fill-rule="evenodd" clip-rule="evenodd" d="M1394.6 441.8H1391.5C1388.7 441.8 1386.5 439.6 1386.5 436.8V428.9C1386.5 426.1 1388.7 423.9 1391.5 423.9H1394.6C1397.4 423.9 1399.6 426.1 1399.6 428.9V436.8C1399.6 439.5 1397.4 441.8 1394.6 441.8Z" fill="#2E186A"/>
<path fill-rule="evenodd" clip-rule="evenodd" d="M1417.4 414H1414.3C1411.5 414 1409.3 411.8 1409.3 409V401.1C1409.3 398.3 1411.5 396.1 1414.3 396.1H1417.4C1420.2 396.1 1422.4 398.3 1422.4 401.1V409C1422.4 411.8 1420.2 414 1417.4 414Z" fill="#2E186A"/>
<path fill-rule="evenodd" clip-rule="evenodd" d="M1256.7 441.7H1109.6C1106.8 441.7 1104.6 439.5 1104.6 436.7V428.8C1104.6 426 1106.8 423.8 1109.6 423.8H1256.7C1259.5 423.8 1261.7 426 1261.7 428.8V436.7C1261.7 439.5 1259.5 441.7 1256.7 441.7Z" fill="#2E186A"/>
<path fill-rule="evenodd" clip-rule="evenodd" d="M1303.1 414H1204.5C1201.7 414 1199.5 411.8 1199.5 409V401.1C1199.5 398.3 1201.7 396.1 1204.5 396.1H1303.1C1305.9 396.1 1308.1 398.3 1308.1 401.1V409C1308.1 411.8 1305.8 414 1303.1 414Z" fill="#FE7624"/>
<path fill-rule="evenodd" clip-rule="evenodd" d="M1399.8 414H1320C1317.2 414 1315 411.8 1315 409V401.1C1315 398.3 1317.2 396.1 1320 396.1H1399.8C1402.6 396.1 1404.8 398.3 1404.8 401.1V409C1404.8 411.8 1402.6 414 1399.8 414Z" fill="#FE7624"/>
<path fill-rule="evenodd" clip-rule="evenodd" d="M1207.5 387.2H1204.4C1201.6 387.2 1199.4 385 1199.4 382.2V374.3C1199.4 371.5 1201.6 369.3 1204.4 369.3H1207.5C1210.3 369.3 1212.5 371.5 1212.5 374.3V382.2C1212.5 384.9 1210.3 387.2 1207.5 387.2Z" fill="#FE7624"/>
<path fill-rule="evenodd" clip-rule="evenodd" d="M1189.4 387.2H1109.6C1106.8 387.2 1104.6 385 1104.6 382.2V374.3C1104.6 371.5 1106.8 369.3 1109.6 369.3H1189.4C1192.2 369.3 1194.4 371.5 1194.4 374.3V382.2C1194.4 384.9 1192.2 387.2 1189.4 387.2Z" fill="#2E186A"/>
<path fill-rule="evenodd" clip-rule="evenodd" d="M1303.1 387.2H1223.3C1220.5 387.2 1218.3 385 1218.3 382.2V374.3C1218.3 371.5 1220.5 369.3 1223.3 369.3H1303.1C1305.9 369.3 1308.1 371.5 1308.1 374.3V382.2C1308.1 384.9 1305.8 387.2 1303.1 387.2Z" fill="#2E186A"/>
<path fill-rule="evenodd" clip-rule="evenodd" d="M1374.5 441.8H1273.7C1270.9 441.8 1268.7 439.6 1268.7 436.8V428.8C1268.7 426 1270.9 423.8 1273.7 423.8H1374.5C1377.3 423.8 1379.5 426 1379.5 428.8V436.8C1379.5 439.5 1377.3 441.8 1374.5 441.8Z" fill="#FE7624"/>
<path fill-rule="evenodd" clip-rule="evenodd" d="M1498.67 741.509C1514.73 740.282 1528.68 752.33 1529.79 768.371C1531.02 784.43 1518.97 798.377 1502.85 799.496C1500.33 799.622 1498.28 799.571 1496.25 799.267C1494.62 799.021 1493.49 797.493 1493.73 795.855C1493.98 794.216 1495.51 793.087 1497.14 793.333C1498.72 793.569 1500.4 793.611 1502.49 793.507C1515.23 792.622 1524.78 781.568 1523.81 768.808C1522.92 756.068 1511.87 746.518 1499.15 747.49C1497.07 747.663 1495 748.094 1493.05 748.746C1491.48 749.27 1489.78 748.42 1489.25 746.849C1488.73 745.277 1489.58 743.578 1491.15 743.054C1493.55 742.253 1496.09 741.724 1498.67 741.509Z" fill="#2E186A"/>
<path fill-rule="evenodd" clip-rule="evenodd" d="M1390.1 701.48C1391.33 700.47 1393.13 700.604 1394.2 701.755L1394.32 701.898L1431.62 747.398C1432.67 748.679 1432.48 750.57 1431.2 751.62C1429.97 752.63 1428.17 752.496 1427.1 751.345L1426.98 751.202L1389.68 705.702C1388.63 704.421 1388.82 702.53 1390.1 701.48Z" fill="#2E186A"/>
<path fill-rule="evenodd" clip-rule="evenodd" d="M1386.5 735.2V821C1386.5 837.6 1399.9 851 1416.5 851H1467.1C1483.7 851 1497.1 837.6 1497.1 821V735.2H1386.5ZM1431.3 798C1432 798.5 1432.3 799 1432.3 799.8C1432.3 800.4 1432.1 800.8 1431.7 801.2C1431.3 801.6 1430.8 801.8 1430.3 801.8C1429.9 801.8 1429.6 801.7 1429.3 801.5L1409.3 789.5C1408.6 789 1408.2 788.4 1408.2 787.7C1408.2 787 1408.6 786.4 1409.3 785.9L1429.3 773.9C1429.6 773.7 1429.9 773.6 1430.3 773.6C1430.9 773.6 1431.3 773.8 1431.7 774.2C1432.1 774.6 1432.3 775.1 1432.3 775.6C1432.3 776.3 1432 776.9 1431.3 777.4L1414.1 787.7L1431.3 798ZM1456.3 768.4L1440.2 808.6C1440.1 808.8 1440 809 1439.8 809.2C1439.4 809.6 1438.9 809.8 1438.4 809.8C1437.8 809.8 1437.4 809.6 1437 809.2C1436.6 808.8 1436.4 808.3 1436.4 807.8C1436.4 807.5 1436.5 807.2 1436.6 806.9L1452.7 766.7C1452.8 766.5 1452.9 766.3 1453.1 766.1C1453.5 765.7 1454 765.5 1454.5 765.5C1455.1 765.5 1455.5 765.7 1455.9 766.1C1456.3 766.5 1456.5 767 1456.5 767.5C1456.5 767.9 1456.4 768.2 1456.3 768.4ZM1483.5 789.5L1463.5 801.5C1463.2 801.7 1462.9 801.8 1462.5 801.8C1461.9 801.8 1461.5 801.6 1461.1 801.2C1460.7 800.8 1460.5 800.3 1460.5 799.8C1460.5 799.1 1460.8 798.5 1461.5 798L1478.7 787.7L1461.5 777.4C1460.8 776.9 1460.5 776.4 1460.5 775.6C1460.5 775 1460.7 774.6 1461.1 774.2C1461.5 773.8 1462 773.6 1462.5 773.6C1462.9 773.6 1463.2 773.7 1463.5 773.9L1483.5 785.9C1484.2 786.4 1484.6 787 1484.6 787.7C1484.6 788.4 1484.3 789.1 1483.5 789.5Z" fill="#2E186A"/>
<path fill-rule="evenodd" clip-rule="evenodd" d="M249.013 741.506C250.955 741.384 252.689 741.412 254.297 741.626C255.939 741.845 257.093 743.354 256.874 744.996C256.655 746.639 255.146 747.793 253.504 747.574C252.327 747.417 250.969 747.395 249.408 747.493C236.703 748.375 227.205 759.402 228.093 772.192C228.978 784.932 240.032 794.482 252.772 793.509C254.424 793.382 255.865 794.619 255.991 796.271C256.118 797.923 254.881 799.365 253.229 799.491C237.17 800.718 223.223 788.67 222.107 772.608C220.99 756.525 232.968 742.62 249.013 741.506Z" fill="#2E186A"/>
<path fill-rule="evenodd" clip-rule="evenodd" d="M249.6 735.2V821C249.6 837.6 263 851 279.6 851H330.2C346.8 851 360.2 837.6 360.2 821V735.2H249.6ZM294.3 798C295 798.5 295.3 799 295.3 799.8C295.3 800.4 295.1 800.8 294.7 801.2C294.3 801.6 293.8 801.8 293.3 801.8C292.9 801.8 292.6 801.7 292.3 801.5L272.3 789.5C271.6 789 271.2 788.4 271.2 787.7C271.2 787 271.6 786.4 272.3 785.9L292.3 773.9C292.6 773.7 292.9 773.6 293.3 773.6C293.9 773.6 294.3 773.8 294.7 774.2C295.1 774.6 295.3 775.1 295.3 775.6C295.3 776.3 295 776.9 294.3 777.4L277.1 787.7L294.3 798ZM336.5 789.5L316.5 801.5C316.2 801.7 315.9 801.8 315.5 801.8C314.9 801.8 314.5 801.6 314.1 801.2C313.7 800.8 313.5 800.3 313.5 799.8C313.5 799.1 313.8 798.5 314.5 798L331.7 787.7L314.5 777.4C313.8 776.9 313.5 776.4 313.5 775.6C313.5 775 313.7 774.6 314.1 774.2C314.5 773.8 315 773.6 315.5 773.6C315.9 773.6 316.2 773.7 316.5 773.9L336.5 785.9C337.2 786.4 337.6 787 337.6 787.7C337.6 788.4 337.2 789.1 336.5 789.5Z" fill="#2E186A"/>
<path fill-rule="evenodd" clip-rule="evenodd" d="M419.949 673.174C421.346 672.402 423.09 672.862 423.933 674.192L424.026 674.349L437.726 699.149C438.527 700.6 438.001 702.425 436.551 703.226C435.154 703.997 433.41 703.538 432.567 702.208L432.474 702.051L418.774 677.251C417.973 675.8 418.499 673.975 419.949 673.174Z" fill="#2E186A"/>
<path fill-rule="evenodd" clip-rule="evenodd" d="M480.5 700.3C482.157 700.3 483.5 701.643 483.5 703.3C483.5 704.898 482.251 706.204 480.676 706.295L480.5 706.3H404.7C403.043 706.3 401.7 704.957 401.7 703.3C401.7 701.702 402.949 700.396 404.524 700.305L404.7 700.3H480.5Z" fill="#2E186A"/>
<path fill-rule="evenodd" clip-rule="evenodd" d="M470 784.1C468.9 783 467.5 782.4 465.8 782.4C464.2 782.4 462.8 783 461.6 784.1C460.5 785.2 459.9 786.6 459.9 788.3C459.9 789.9 460.5 791.3 461.6 792.5C462.7 793.6 464.1 794.2 465.8 794.2C467.4 794.2 468.8 793.6 470 792.5C471.1 791.4 471.7 790 471.7 788.3C471.7 786.6 471.2 785.2 470 784.1Z" fill="#2E186A"/>
<path fill-rule="evenodd" clip-rule="evenodd" d="M465.9 775.3C467.5 775.3 468.9 774.7 470.1 773.6C471.2 772.5 471.8 771.1 471.8 769.4C471.8 767.8 471.2 766.4 470.1 765.2C469 764.1 467.6 763.5 465.9 763.5C464.3 763.5 462.9 764.1 461.7 765.2C460.6 766.3 460 767.7 460 769.4C460 771 460.6 772.4 461.7 773.6C462.9 774.7 464.2 775.3 465.9 775.3Z" fill="#2E186A"/>
<path fill-rule="evenodd" clip-rule="evenodd" d="M470 811.2C471.1 810.1 471.7 808.7 471.7 807C471.7 805.4 471.1 804 470 802.8C468.9 801.7 467.5 801.1 465.8 801.1C464.2 801.1 462.8 801.7 461.6 802.8C460.5 803.9 459.9 805.3 459.9 807C459.9 808.6 460.5 810 461.6 811.2C462.7 812.3 464.1 812.9 465.8 812.9C467.5 812.9 468.9 812.3 470 811.2Z" fill="#2E186A"/>
<path fill-rule="evenodd" clip-rule="evenodd" d="M488 721.4L474.7 704.1H410.6L397.3 721.4C396 723.1 395.3 725 395.3 727V832.3C395.3 835.6 397.1 838.6 400.2 840.6C404.3 843.2 409.6 847.1 409.9 850.9H475.2C475.6 847.1 480.8 843.1 484.9 840.6C488 838.7 489.8 835.6 489.8 832.3V727C489.9 725 489.3 723 488 721.4ZM460.2 741.6L467.2 729.9C467.5 729.5 467.8 729.3 468.3 729.3C468.7 729.3 469.1 729.5 469.4 729.9L476.4 741.6C476.5 741.8 476.5 742 476.5 742.2C476.5 742.5 476.4 742.8 476.2 743C476 743.2 475.7 743.3 475.4 743.3C475 743.3 474.6 743.1 474.4 742.7L468.4 732.7L462.4 742.7C462.1 743.1 461.8 743.3 461.4 743.3C461.1 743.3 460.8 743.2 460.6 743C460.4 742.8 460.3 742.5 460.3 742.2C460 741.9 460.1 741.7 460.2 741.6ZM460.6 746C460.8 745.9 461 745.8 461.3 745.8C461.6 745.8 461.9 745.9 462.1 746.1C462.3 746.3 462.4 746.6 462.4 746.9C462.4 747.2 462.3 747.5 462.1 747.7C461.9 747.9 461.7 748 461.7 748.1C460.6 749.2 460 750.6 460 752.3C460 753.9 460.5 755.2 461.5 756.2C461.8 756.4 462.1 756.6 462.5 756.6C463 756.6 463.3 756.3 463.4 755.9L465.8 748.7C466.1 747.8 466.5 747.2 466.8 746.8C467.5 746.1 468.3 745.8 469.3 745.8C470.3 745.8 471.1 746.2 471.8 746.9C473.2 748.3 474 750.1 474 752.4C474 754.9 473 757 471.1 758.7C470.9 758.9 470.7 758.9 470.4 758.9C470.1 758.9 469.8 758.8 469.6 758.6C469.4 758.4 469.3 758.1 469.3 757.8C469.3 757.5 469.4 757.2 469.6 757C469.8 756.8 470 756.7 470 756.6C471.1 755.5 471.7 754.1 471.7 752.4C471.7 750.8 471.2 749.5 470.2 748.5C469.9 748.3 469.6 748.1 469.2 748.1C468.7 748.1 468.4 748.4 468.3 748.8L465.9 756C465.6 756.9 465.2 757.5 464.9 757.9C464.2 758.6 463.4 758.9 462.4 758.9C461.4 758.9 460.6 758.5 459.9 757.8C458.5 756.4 457.7 754.6 457.7 752.3C457.7 749.8 458.6 747.7 460.6 746ZM460.1 763.6C461.7 762 463.6 761.2 465.9 761.2C468.2 761.2 470.1 762 471.7 763.6C473.3 765.2 474.1 767.1 474.1 769.4C474.1 771.7 473.3 773.6 471.7 775.2C470.1 776.8 468.2 777.6 465.9 777.6C463.6 777.6 461.7 776.8 460.1 775.2C458.5 773.6 457.7 771.7 457.7 769.4C457.7 767.1 458.5 765.2 460.1 763.6ZM458 814.9C457.8 814.7 457.7 814.4 457.7 814.1C457.7 813.8 457.8 813.5 458 813.3C458.2 813.1 458.5 813 458.8 813H460.1C458.5 811.4 457.6 809.4 457.6 807.1C457.6 804.8 458.4 802.9 460 801.3C461.6 799.7 463.5 798.9 465.8 798.9C468.1 798.9 470 799.7 471.6 801.3C473.2 802.9 474 804.8 474 807.1C474 809.4 473.2 811.3 471.6 812.9C470 814.5 468.1 815.3 465.8 815.3H458.8C458.5 815.2 458.2 815.1 458 814.9ZM476.3 819.3L469.3 831C469 831.4 468.7 831.6 468.2 831.6C467.8 831.6 467.4 831.4 467.1 831L460.1 819.3C460 819.1 460 818.9 460 818.7C460 818.4 460.1 818.1 460.3 817.9C460.5 817.7 460.8 817.6 461.1 817.6C461.5 817.6 461.9 817.8 462.1 818.2L468.1 828.2L474.1 818.2C474.4 817.8 474.7 817.6 475.1 817.6C475.4 817.6 475.7 817.7 475.9 817.9C476.1 818.1 476.2 818.4 476.2 818.7C476.4 819 476.4 819.1 476.3 819.3ZM480.8 796.1C480.6 796.3 480.3 796.4 480 796.4H465.9C463.6 796.4 461.7 795.6 460.1 794C458.5 792.4 457.7 790.5 457.7 788.2C457.7 785.9 458.5 784 460.1 782.4C461.7 780.8 463.6 780 465.9 780C468.2 780 470.1 780.8 471.7 782.4C473.3 784 474.1 785.9 474.1 788.2C474.1 790.5 473.3 792.4 471.7 794C471.7 794 471.7 794 471.6 794.1H480C480.3 794.1 480.6 794.2 480.8 794.4C481 794.6 481.1 794.9 481.1 795.2C481.1 795.5 481 795.9 480.8 796.1Z" fill="#2E186A"/>
<path fill-rule="evenodd" clip-rule="evenodd" d="M728.056 361.763C732.413 355.823 740.209 357.4 748.158 365.616C755.896 373.627 760.869 384.257 763.618 395.805C764.002 397.417 763.007 399.035 761.395 399.418C759.783 399.802 758.165 398.807 757.782 397.195C755.26 386.603 750.725 376.91 743.844 369.786C738.121 363.871 734.49 363.136 732.894 365.312C730.95 367.961 731.207 373.991 734.086 379.769L734.265 380.122C738.44 388.2 739.609 404.108 738.999 423.793C738.947 425.449 737.563 426.75 735.907 426.698C734.251 426.647 732.95 425.263 733.002 423.607L733.06 421.508C733.482 404.134 732.343 389.794 729.068 383.141L728.936 382.879C724.943 375.166 724.518 366.586 728.056 361.763Z" fill="#2E186A"/>
<path fill-rule="evenodd" clip-rule="evenodd" d="M861.9 347.8C845.829 347.8 832.8 360.828 832.8 376.9C832.8 392.971 845.829 406 861.9 406C877.972 406 891 392.971 891 376.9C891 360.828 877.972 347.8 861.9 347.8ZM861.9 353.8C874.658 353.8 885 364.142 885 376.9C885 389.658 874.658 400 861.9 400C849.142 400 838.8 389.658 838.8 376.9C838.8 364.142 849.142 353.8 861.9 353.8Z" fill="#2E186A"/>
<path fill-rule="evenodd" clip-rule="evenodd" d="M706.143 472.368C707.406 471.456 709.146 471.666 710.158 472.824L710.702 473.509C711.066 473.967 711.497 474.499 711.993 475.101C713.416 476.828 715.068 478.755 716.928 480.832C722.244 486.772 728.151 492.712 734.48 498.248C749.683 511.547 764.818 520.36 778.88 522.639C780.039 522.826 780.983 523.674 781.293 524.807L781.358 525.064C781.46 525.493 781.577 526.124 781.687 526.959C782.274 531.389 782.179 537.493 780.972 545.372L780.863 546.072C780.239 549.986 781.188 552.731 784.344 557.569L785.922 559.952C788.213 563.452 789.345 565.596 790.19 568.442C791.407 572.537 791.363 576.871 789.88 581.741L789.86 581.831C789.5 583.835 786.522 612.802 785.098 625.255L784.968 626.384C781.188 658.894 776.652 689.239 770.799 717.979C763.083 755.869 753.725 787.429 742.405 810.992C728.76 839.397 712.54 855.547 693.224 856.992C691.571 857.115 690.132 855.876 690.008 854.224C689.885 852.571 691.124 851.132 692.776 851.008C709.256 849.776 723.889 835.358 736.612 809.19L736.997 808.394C748.064 785.357 757.294 754.229 764.92 716.781C770.577 689.003 775.002 659.676 778.701 628.309L779.254 623.53C780.638 611.222 783.642 582.102 784.116 580.081L784.13 580.026C786.155 573.377 785.131 569.673 780.644 562.848L779.592 561.264C775.48 555.043 774.002 550.995 774.937 545.128C776.088 537.909 776.25 532.384 775.823 528.446L775.791 528.173L775.237 528.059C760.893 525.017 746.039 516.203 731.224 503.369L730.53 502.764C724.002 497.054 717.927 490.945 712.457 484.834C710.89 483.083 709.464 481.433 708.19 479.912L707.406 478.969L706.047 480.056C703.427 482.167 700.087 484.945 695.949 488.481C693.31 490.735 690.43 491.931 687.175 492.3L686.682 492.352C684.655 492.541 682.928 492.432 679.465 492.032L679.041 491.983C670.864 491.022 667.495 491.673 663.085 496.618L662.856 496.877C660.023 500.11 645.543 523.308 623.442 559.728L616.442 571.283L613.581 576.017C606.866 587.133 599.894 598.723 592.867 610.437L575.68 639.155L571.277 646.535C570.43 647.959 568.588 648.425 567.165 647.577C565.794 646.761 565.311 645.023 566.034 643.625L571.081 635.153L580.179 619.937C589.233 604.813 598.319 589.689 607.002 575.305L617.698 557.627C640.65 519.786 655.127 496.593 658.34 492.927C661.728 489.046 665.391 486.847 669.505 485.998C672.234 485.435 674.4 485.443 678.354 485.867L680.564 486.117C686.706 486.79 689.117 486.426 692.051 483.919L694.562 481.784C697.612 479.202 700.174 477.082 702.286 475.381L703.855 474.128C704.237 473.826 704.586 473.553 704.903 473.308L705.938 472.519C706.024 472.455 706.093 472.405 706.143 472.368Z" fill="#2E186A"/>
<path fill-rule="evenodd" clip-rule="evenodd" d="M781 545.2C783.5 530.3 784.5 523.9 784.5 523.9C746.3 518 707 470 707 470C707 470 703.1 472.9 692.1 482.4C687.7 486.2 683.1 486.2 678.3 485.7C674.9 527.4 749.8 564.5 785.2 566.3C783 556.3 779.1 556.5 781 545.2Z" fill="#2E186A"/>
<path fill-rule="evenodd" clip-rule="evenodd" d="M563.615 596.271C574.817 594.852 584.682 597.452 592.549 604.809C593.759 605.94 593.823 607.839 592.691 609.049C591.56 610.259 589.661 610.323 588.451 609.191C581.986 603.146 573.905 601.016 564.369 602.223C555.714 603.319 546.307 607.101 536.77 612.734C532.703 615.136 528.891 617.712 525.448 620.287L524.571 620.949C524.004 621.381 523.47 621.796 522.973 622.19L522.255 622.765C521.999 622.972 521.771 623.16 521.57 623.327L521.159 623.672C519.905 624.754 518.01 624.614 516.928 623.359C515.846 622.105 515.986 620.21 517.241 619.128L517.655 618.778C517.83 618.632 518.042 618.458 518.289 618.257L519.243 617.491C520.033 616.864 520.905 616.192 521.854 615.482C525.463 612.784 529.453 610.087 533.719 607.567C543.899 601.555 554.021 597.486 563.615 596.271Z" fill="#2E186A"/>
<path fill-rule="evenodd" clip-rule="evenodd" d="M814.044 362.811L813.78 362.841C809.758 363.42 798.685 369.719 783.084 379.777L779.89 381.847C765.708 391.093 751.758 400.906 747.13 404.938L746.877 405.167C742.728 409.07 733.372 424.45 719.673 449.014L718.811 450.561C718.008 452.004 717.194 453.471 716.371 454.961L713.945 459.363C709.472 467.502 704.869 476.003 700.287 484.559L696.309 492.012C694.854 494.745 693.485 497.328 692.217 499.728L689.542 504.808C688.797 506.231 689.305 507.988 690.693 508.794L766.293 552.694L766.457 552.782C767.992 553.554 769.884 552.875 770.563 551.268L807.595 463.685L808.105 463.675C823.751 463.317 834.213 459.174 838.937 452.495C843.482 446.068 841.298 437.843 834.536 437.309L834.357 437.296C833.476 437.238 832.307 437.237 830.864 437.29L829.945 437.329L830.056 437.293C839.14 434.276 844.608 429.683 846.341 424.087C848.297 417.769 844.585 411.156 838.987 410.806L838.856 410.797C837.521 410.722 835.09 410.996 831.631 411.586L831.087 411.68L831.288 411.573C836.274 408.839 839.554 404.728 840.612 400.093C841.956 394.207 839.292 388.627 833.863 387.199L833.699 387.159C830.574 386.478 822.365 388.089 811.067 391.254L809.859 391.595L810.408 391.277C813.934 389.226 816.943 387.39 819.35 385.806C825.93 381.474 828.189 375.594 825.885 370.187C823.916 365.565 818.873 362.397 814.044 362.811ZM820.365 372.538C821.452 375.09 820.348 377.965 816.05 380.794L815.258 381.31C812.407 383.151 808.728 385.347 804.379 387.822L802.204 389.052C801.68 389.346 801.149 389.644 800.61 389.944C796.397 392.291 791.913 394.716 787.399 397.107L784.395 398.691L779.661 401.155L778.933 401.529C775.613 403.229 777.756 408.254 781.281 407.035L783.505 406.27C807.404 398.089 828.962 392.124 832.345 393.003C834.354 393.532 835.437 395.802 834.763 398.757C833.915 402.472 830.609 405.883 825.184 407.712L824.693 407.874L783.993 422.374C780.46 423.633 781.982 428.865 785.553 428.15L785.875 428.073L791.532 426.675L792.939 426.331C798.41 424.996 804.004 423.661 809.395 422.415L811.761 421.872L815.119 421.111C827.731 418.281 836.528 416.632 838.566 416.791C840.037 416.883 841.489 419.47 840.609 422.313C839.188 426.902 832.9 431.118 820.999 433.445L817.006 434.208C795.939 438.287 788.421 440.966 787.259 443.582C786.326 445.681 787.999 447.983 790.247 447.79L795.665 447.063C799.687 446.532 803.864 446 807.982 445.504L810.095 445.252L814.821 444.71C824.556 443.627 831.497 443.088 834.064 443.291C835.504 443.404 836.19 445.988 834.038 449.03C830.379 454.205 820.884 457.742 805.608 457.7L805.408 457.706C804.28 457.778 803.281 458.48 802.837 459.532L766.362 545.795L696.193 505.049L701.125 495.734C701.762 494.536 702.415 493.309 703.085 492.053L705.576 487.392C710.979 477.302 716.411 467.29 721.622 457.864L724.054 453.478L726.495 449.108C739.018 426.771 747.993 412.142 751.07 409.462C761.995 399.947 809.276 369.242 814.556 368.789C816.753 368.601 819.394 370.26 820.365 372.538Z" fill="#2E186A"/>
<path fill-rule="evenodd" clip-rule="evenodd" d="M646.972 741.509C663.031 740.282 676.978 752.33 678.092 768.371C679.318 784.43 667.27 798.377 651.182 799.494C647.347 799.727 643.71 799.332 640.452 798.246C638.88 797.722 638.03 796.023 638.554 794.451C639.078 792.879 640.777 792.03 642.349 792.554C644.832 793.382 647.71 793.694 650.792 793.507C663.532 792.622 673.082 781.568 672.107 768.808C671.223 756.068 660.168 746.518 647.414 747.492C646.154 747.582 644.893 747.763 643.629 748.033C642.009 748.381 640.414 747.349 640.067 745.729C639.72 744.108 640.752 742.514 642.372 742.167C643.908 741.837 645.446 741.618 646.972 741.509Z" fill="#2E186A"/>
<path fill-rule="evenodd" clip-rule="evenodd" d="M534.9 735.2V821C534.9 837.6 548.3 851 564.9 851H615.5C632.1 851 645.5 837.6 645.5 821V735.2H534.9ZM579.6 798C580.3 798.5 580.6 799 580.6 799.8C580.6 800.4 580.4 800.8 580 801.2C579.6 801.6 579.1 801.8 578.6 801.8C578.2 801.8 577.9 801.7 577.6 801.5L557.6 789.5C556.9 789 556.5 788.4 556.5 787.7C556.5 787 556.9 786.4 557.6 785.9L577.6 773.9C577.9 773.7 578.2 773.6 578.6 773.6C579.2 773.6 579.6 773.8 580 774.2C580.4 774.6 580.6 775.1 580.6 775.6C580.6 776.3 580.3 776.9 579.6 777.4L562.4 787.7L579.6 798ZM604.6 768.4L588.5 808.6C588.4 808.8 588.3 809 588.1 809.2C587.7 809.6 587.2 809.8 586.7 809.8C586.1 809.8 585.7 809.6 585.3 809.2C584.9 808.8 584.7 808.3 584.7 807.8C584.7 807.5 584.8 807.2 584.9 806.9L601 766.7C601.1 766.5 601.2 766.3 601.4 766.1C601.8 765.7 602.3 765.5 602.8 765.5C603.4 765.5 603.8 765.7 604.2 766.1C604.6 766.5 604.8 767 604.8 767.5C604.8 767.9 604.7 768.2 604.6 768.4ZM631.8 789.5L611.8 801.5C611.5 801.7 611.2 801.8 610.8 801.8C610.2 801.8 609.8 801.6 609.4 801.2C609 800.8 608.8 800.3 608.8 799.8C608.8 799.1 609.1 798.5 609.8 798L627 787.7L609.8 777.4C609.1 776.9 608.8 776.4 608.8 775.6C608.8 775 609 774.6 609.4 774.2C609.8 773.8 610.3 773.6 610.8 773.6C611.2 773.6 611.5 773.7 611.8 773.9L631.8 785.9C632.5 786.4 632.9 787 632.9 787.7C633 788.4 632.6 789.1 631.8 789.5Z" fill="#2E186A"/>
<path fill-rule="evenodd" clip-rule="evenodd" d="M1647.2 850.5C1648.86 850.5 1650.2 851.843 1650.2 853.5C1650.2 855.098 1648.95 856.404 1647.38 856.495L1647.2 856.5H10.8C9.14319 856.5 7.80005 855.157 7.80005 853.5C7.80005 851.902 9.04897 850.596 10.6238 850.505L10.8 850.5H1647.2Z" fill="#2E186A"/>
<path fill-rule="evenodd" clip-rule="evenodd" d="M861.5 427.5L856 341.9L745.6 349L749.4 406.9C759.2 398.5 807.4 366.3 814.4 365.7C821.4 365.1 829.8 375.3 817.8 383.2C805.8 391.1 780.4 404.1 780.4 404.1C801.5 396.7 828.2 388.7 833.2 390C840.8 392 840.3 406 825.8 410.6L785.1 425.1C785.1 425.1 832.5 413.2 838.9 413.7C845.3 414.2 850.9 430.8 821.1 436.4C791.3 442.1 790.1 444.7 790.1 444.7C790.1 444.7 826.8 439.5 834.4 440.2C842 440.9 842.2 460.7 805.7 460.6L805.5 461.1L833.6 459.3C850 458.3 862.6 444 861.5 427.5Z" fill="#2E186A"/>
</svg>
