<svg width="1300" height="1300" viewBox="0 0 1300 1300" fill="none" xmlns="http://www.w3.org/2000/svg">
<path d="M650 1300C290.71 1300 0 1008.86 0 650C0 290.71 291.141 0 650 0C1009.29 0 1300 291.141 1300 650C1300.43 1009.29 1009.29 1300 650 1300Z" fill="#FF7300"/>
<mask id="mask0_32_1432" style="mask-type:alpha" maskUnits="userSpaceOnUse" x="0" y="0" width="1301" height="1300">
<path d="M650 1300C290.71 1300 0 1008.86 0 650C0 290.71 291.141 0 650 0C1009.29 0 1300 291.141 1300 650C1300.43 1009.29 1009.29 1300 650 1300Z" fill="#F7C0B5"/>
</mask>
<g mask="url(#mask0_32_1432)">
<path d="M1014 1197.33C1010.97 1199.5 1007.5 1201.66 1004.47 1203.83C1001 1206 997.967 1208.16 994.5 1209.9C991.467 1211.63 988.867 1213.36 985.833 1215.1C985.4 1215.53 984.967 1215.53 984.533 1215.96C974.567 1222.03 964.167 1227.66 953.767 1232.86C950.733 1234.6 947.267 1236.33 944.233 1237.63C944.233 1237.63 943.8 1238.06 943.367 1238.06C939.9 1239.8 936.433 1241.53 932.967 1243.26C926.033 1246.73 918.667 1249.76 911.733 1252.8C908.267 1254.53 904.367 1255.83 900.9 1257.13C897.433 1258.43 893.533 1260.16 890.067 1261.46C886.6 1262.76 882.7 1264.5 879.233 1265.8C879.233 1265.8 879.233 1265.8 878.8 1265.8C875.333 1267.1 871.433 1268.4 867.967 1269.7C860.167 1272.3 851.933 1274.9 844.133 1277.5C841.533 1278.36 838.5 1279.23 835.9 1280.1C827.667 1282.7 819.433 1284.86 811.2 1286.6C808.167 1287.46 805.133 1287.9 801.667 1288.76C793.867 1290.5 785.633 1292.23 777.833 1293.96C776.1 1294.4 774.8 1294.4 773.067 1294.83C770.467 1295.26 767.433 1295.7 764.833 1296.13C760.933 1296.56 757.467 1297.43 753.567 1297.86C751.833 1298.3 750.1 1298.3 748.367 1298.73C746.2 1299.16 743.6 1299.6 741 1299.6C734.067 1300.46 726.7 1301.33 719.767 1302.2C717.6 1302.63 715 1302.63 712.833 1303.06H712.4C709.367 1303.5 706.333 1303.5 703.3 1303.93C700.267 1304.36 697.233 1304.36 694.2 1304.36C692.467 1304.36 690.3 1304.8 688.567 1304.8C685.1 1304.8 682.067 1305.23 679.033 1305.23C674.7 1305.23 670.8 1305.66 666.467 1305.66C662.133 1305.66 658.233 1305.66 653.9 1305.66C650.867 1305.66 647.833 1305.66 644.8 1305.66C462.367 1303.06 297.7 1225.5 180.7 1102.43C180.7 1102.43 180.7 1102 180.267 1102C193.7 1075.56 243.534 1027.9 295.534 988.465C361.4 938.631 454.567 907.865 454.567 907.865C454.567 907.865 515.667 897.898 742.3 945.131C915.2 981.531 988.867 1129.3 1014 1197.33Z" fill="#EFBD9C"/>
<path d="M790.4 1065.16C781.3 1109.8 722.367 1136.23 623.134 1096.36C501.367 1046.96 454.567 907.864 454.567 907.864C448.067 808.198 432.9 722.831 432.9 722.831C573.734 710.698 740.133 875.364 740.133 875.364L759.2 956.831C760.934 963.764 764.4 969.831 769.6 974.164C778.7 989.764 796.467 1036.56 790.4 1065.16Z" fill="#EFBD9C"/>
<path d="M769.6 974.598C686.833 970.264 625.733 958.131 560.3 840.698C615.767 889.664 681.2 908.298 750.1 916.964L759.2 956.831C760.933 964.198 764.4 970.264 769.6 974.598Z" fill="#AD827B"/>
<path d="M940.767 452.431C948.567 488.831 952.467 518.298 931.233 615.365C910 712.431 950.733 809.498 848.467 898.331C779.567 958.131 659.1 969.398 562.9 903.965C530.4 881.865 500.5 851.098 476.234 810.798C457.167 779.165 435.067 749.265 410.367 721.965C376.134 684.698 334.967 609.731 355.334 477.131C388.267 261.332 601.9 236.632 728 260.465C854.1 284.298 919.533 356.231 940.767 452.431Z" fill="#EFBD9C"/>
<path d="M526.067 621.865C526.067 621.865 512.634 556.865 449.367 564.665C394.767 571.598 375.7 702.465 499.634 738.865" fill="#EFBD9C"/>
<path d="M495.734 679.498C495.734 679.498 480.134 669.531 481.867 652.198C484.467 631.831 481.867 619.265 472.334 615.365C448.5 605.398 443.734 633.131 444.6 636.598" stroke="#423232" stroke-width="13.4786" stroke-miterlimit="10" stroke-linecap="round" stroke-linejoin="round"/>
<path d="M839.367 575.932C839.367 575.932 840.233 617.098 866.667 663.031C878.367 683.398 860.6 716.765 822.033 722.398" stroke="#423232" stroke-width="13.4786" stroke-miterlimit="10" stroke-linecap="round" stroke-linejoin="round"/>
<path d="M1054.97 1116.39C993.434 1037.09 898.101 1004.15 845.668 984.654C841.334 962.988 833.101 939.154 820.101 916.188C800.168 928.321 777.201 937.421 753.368 942.188L756.834 956.488C758.568 963.421 767.234 995.488 753.801 1036.65C742.534 1071.32 697.034 1086.92 619.901 1051.82C469.534 983.788 452.201 907.088 452.201 907.088C449.601 865.488 445.268 826.488 441.368 794.854C394.568 805.254 340.401 826.488 310.934 871.121C274.534 925.721 261.101 981.188 264.568 1025.39C201.301 1065.69 103.368 1126.79 71.3012 1235.99C29.7012 1378.12 36.6346 1465.22 36.6346 1465.22H1156.37C1155.07 1465.65 1138.6 1224.29 1054.97 1116.39Z" fill="#6060D8"/>
<path d="M388.283 974.472C388.283 974.472 414.716 1077.17 530.416 1148.24" stroke="#423232" stroke-width="13.4786" stroke-miterlimit="10" stroke-linecap="round" stroke-linejoin="round"/>
<path d="M848.05 984.873C848.05 984.873 878.817 1117.91 811.65 1179.01" stroke="#423232" stroke-width="13.4786" stroke-miterlimit="10" stroke-linecap="round" stroke-linejoin="round"/>
<path d="M639.184 1158.64C639.184 1158.64 616.65 1224.51 622.717 1270.01" stroke="#423232" stroke-width="13.4786" stroke-miterlimit="10" stroke-linecap="round" stroke-linejoin="round"/>
<path d="M777.418 1154.74C777.418 1154.74 794.318 1191.57 806.451 1250.07" stroke="#423232" stroke-width="13.4786" stroke-miterlimit="10" stroke-linecap="round" stroke-linejoin="round"/>
<path d="M266.517 1026.04C266.517 1026.04 302.05 1170.77 513.517 1213.24" stroke="#423232" stroke-width="13.4786" stroke-miterlimit="10" stroke-linecap="round" stroke-linejoin="round"/>
<path d="M626.617 1279.97L607.55 1278.24C600.617 1277.37 595.417 1270.87 596.717 1263.94L603.217 1231.44C604.95 1222.34 613.617 1215.84 622.717 1217.14C631.817 1218.01 639.184 1225.81 639.184 1235.34L639.617 1268.71C639.617 1275.21 633.55 1280.84 626.617 1279.97Z" fill="white"/>
<path d="M825.517 1260.04L807.317 1266.54C800.384 1269.14 793.017 1264.81 791.717 1257.87L783.917 1225.81C781.751 1216.71 786.517 1207.61 795.617 1204.14C804.284 1201.11 814.251 1205.01 818.151 1213.24L832.451 1243.14C835.484 1249.64 832.451 1257.44 825.517 1260.04Z" fill="white"/>
<path d="M1016.62 1250.07C1016.62 1250.07 1040.88 1386.14 1031.35 1465.87" stroke="#544D4D" stroke-width="13.4786" stroke-miterlimit="10" stroke-linecap="round" stroke-linejoin="round"/>
<path d="M683.943 619.439C673.543 619.006 665.743 610.339 666.609 599.939L667.043 587.806C667.476 577.406 676.143 569.606 686.543 570.473C696.943 570.906 704.743 579.573 703.876 589.973L703.443 602.106C703.009 612.073 694.343 619.873 683.943 619.439Z" fill="#423232"/>
<path d="M866.376 625.939C856.842 625.506 849.476 617.272 849.909 607.739L850.342 596.473C850.776 586.939 859.009 579.573 868.542 580.006C878.076 580.439 885.442 588.673 885.009 598.206L884.576 609.473C884.142 619.006 875.909 626.373 866.376 625.939Z" fill="#423232"/>
<path d="M725.976 594.305C725.976 594.305 714.71 578.272 695.21 575.239C679.176 572.639 661.41 580.439 658.81 589.539" stroke="#423232" stroke-width="13.4786" stroke-miterlimit="10" stroke-linecap="round" stroke-linejoin="round"/>
<path d="M853.81 598.206C853.81 598.206 853.81 584.339 873.743 584.339C890.21 584.339 897.143 599.506 897.143 599.506" stroke="#423232" stroke-width="13.4786" stroke-miterlimit="10" stroke-linecap="round" stroke-linejoin="round"/>
<path d="M743.742 524.539C752.842 527.572 761.942 519.339 760.209 509.372C759.342 504.172 757.176 498.972 752.842 495.072C739.842 483.372 686.109 472.972 653.609 488.139C625.009 502.005 702.142 510.672 743.742 524.539Z" fill="#423232"/>
<path d="M873.308 531.473C865.941 534.073 858.141 526.273 859.441 517.173C859.875 512.406 861.608 507.639 865.075 504.173C875.475 493.773 911.008 485.539 933.541 501.573C953.041 515.006 907.108 518.906 873.308 531.473Z" fill="#423232"/>
<path d="M804.157 772.845C804.606 780.033 799.215 792.613 789.331 801.599C738.561 770.598 715.648 786.772 715.648 786.772C697.676 759.366 701.72 722.075 745.301 750.38C775.852 769.7 794.273 772.845 804.157 772.845Z" fill="#423232"/>
<path d="M789.331 801.599C778.548 811.034 762.374 816.875 740.359 807.889C730.025 803.846 721.938 795.758 715.648 786.773C715.648 786.773 738.562 770.598 789.331 801.599Z" fill="#FE9DAB"/>
<path d="M812.694 771.048C812.694 771.048 793.824 781.381 745.301 750.381C687.343 713.09 699.025 791.266 739.91 807.889C782.592 825.411 804.607 787.222 804.158 772.845" stroke="#423232" stroke-width="13.4786" stroke-miterlimit="10" stroke-linecap="round" stroke-linejoin="round"/>
<path d="M715.648 786.773C715.648 786.773 738.562 770.598 789.331 801.599" stroke="#423232" stroke-width="13.4786" stroke-miterlimit="10" stroke-linecap="round" stroke-linejoin="round"/>
<path d="M975.406 347.902C944.639 459.269 855.373 440.636 771.739 410.302C660.373 369.569 562.44 402.502 562.006 503.036C561.14 650.369 524.306 605.735 520.406 600.102C510.873 581.902 490.506 559.369 451.94 564.135C401.24 570.635 381.306 682.435 475.773 728.369C492.24 812.002 447.173 804.202 447.173 804.202C432.006 742.669 304.606 611.802 304.173 525.569C304.173 409.436 362.673 376.502 362.673 376.502C364.406 295.469 448.906 206.202 591.04 209.236C733.173 211.836 820.273 207.936 848.006 174.569C875.739 140.336 1006.17 236.536 975.406 347.902Z" fill="#423232"/>
<path d="M978.873 481.802C974.54 509.969 962.406 531.636 945.506 547.669C952.006 500.436 948.54 477.902 942.906 451.469C930.773 397.302 904.773 350.502 861.44 315.836C883.106 314.103 905.206 318.869 925.14 331.436C925.14 331.002 996.64 360.036 978.873 481.802Z" fill="#423232"/>
<path d="M477.159 636.126C477.159 636.126 442.492 630.926 445.092 679.459C446.392 704.159 446.392 717.593 445.959 724.526C445.525 729.293 448.559 733.626 452.892 735.359C458.092 737.526 463.725 735.359 466.325 730.159C470.225 723.226 474.559 713.693 474.559 705.893C474.559 692.893 488.425 681.193 488.425 681.193C488.425 681.193 475.859 670.359 477.159 636.126Z" fill="white"/>
<path d="M582.025 1471.59C578.559 1467.69 442.492 1234.99 462.859 1147.46C476.725 1087.23 458.525 1017.89 442.492 956.792C435.992 931.659 429.925 908.259 426.459 887.459C420.392 851.492 424.725 817.259 439.459 785.626C455.492 750.092 452.892 719.326 452.892 718.892L461.559 718.026C461.559 719.326 464.159 751.826 447.259 789.092C433.392 818.992 429.492 851.926 435.125 886.159C438.592 906.526 444.659 929.926 451.159 955.059C467.625 1017.03 485.825 1087.66 471.525 1150.06C452.459 1233.26 588.092 1465.96 588.959 1466.83L582.025 1471.59Z" fill="white"/>
<path d="M446.393 704.592C446.826 714.126 446.393 720.625 446.393 724.525C445.959 729.292 448.993 733.625 453.326 735.359C458.526 737.525 464.159 735.359 466.759 730.159C470.659 723.225 474.993 713.692 474.993 705.892C474.993 705.459 474.993 704.592 474.993 704.159C465.893 707.625 455.493 710.226 446.393 704.592Z" fill="#E5E5E5"/>
<path d="M854.158 992.759C851.125 1012.69 850.692 1044.33 849.825 1081.16C848.525 1152.23 806.492 1429.13 786.125 1472.89L778.325 1469.43C797.825 1426.96 839.858 1151.36 841.158 1081.16C842.025 1044.33 842.458 1012.26 845.492 991.459C851.992 947.692 847.225 914.759 844.625 900.892C845.925 899.592 847.225 898.725 848.525 897.425C849.825 896.559 850.692 895.259 851.992 894.392C854.592 905.659 861.958 941.625 854.158 992.759Z" fill="white"/>
<path d="M757.834 663.167H656.867C630.434 663.167 609.201 641.933 609.201 615.5V574.333C609.201 547.9 630.434 526.667 656.867 526.667H757.834C784.267 526.667 805.5 547.9 805.5 574.333V615.5C805.5 641.933 783.834 663.167 757.834 663.167Z" stroke="#423232" stroke-width="13.4786" stroke-miterlimit="10" stroke-linecap="round" stroke-linejoin="round"/>
<path d="M932.034 526.667H882.2C864.867 526.667 850.567 540.967 850.567 558.3V596C856.634 617.667 865.3 638.467 878.3 657.1C879.6 657.1 880.9 657.533 882.2 657.533H932.034C949.367 657.533 963.667 643.233 963.667 625.9V558.3C964.1 540.533 949.8 526.667 932.034 526.667Z" stroke="#423232" stroke-width="13.4786" stroke-miterlimit="10" stroke-linecap="round" stroke-linejoin="round"/>
<path d="M805.5 566.1C820.233 564.367 838.867 563.067 854.467 564.8" stroke="#423232" stroke-width="13.4786" stroke-miterlimit="10" stroke-linecap="round" stroke-linejoin="round"/>
<path d="M609.199 569.134L508.666 572.6" stroke="#423232" stroke-width="13.4786" stroke-miterlimit="10" stroke-linecap="round" stroke-linejoin="round"/>
</g>
</svg>
